<svg version="1.1" xmlns="http://www.w3.org/2000/svg" xmlns:xlink="http://www.w3.org/1999/xlink" width="500px" height="500px" viewBox="0,0,256,256"><g fill="none" fill-rule="nonzero" stroke="none" stroke-width="1" stroke-linecap="butt" stroke-linejoin="miter" stroke-miterlimit="10" stroke-dasharray="" stroke-dashoffset="0" font-family="none" font-weight="none" font-size="none" text-anchor="none" style="mix-blend-mode: normal"><g transform="scale(0.512,0.512)"><g id="BACKGROUND" fill="#b4b193"><rect x="0" y="0" width="500" height="500"></rect></g><g id="OBJECTS"><g><g><g><g id="XMLID_7_"><g><path d="M415.8,323.984c0,2.62 -0.112,5.222 -0.318,7.804h-0.019c-16.582,-10.387 -68.986,-31.423 -68.986,-31.423c0,0 -18.192,-15.497 -28.785,-29.945c1.329,-4.941 3.668,-15.89 5.82,-26.202c0.299,-1.422 0.599,-2.845 0.88,-4.23c0.767,-0.112 1.497,-0.262 2.208,-0.412c11.379,-2.452 16.133,-9.32 17.574,-19.371c43.272,22.684 71.626,60.714 71.626,103.779z" fill="#ff6b79"></path><path d="M389.523,323.235c1.216,0.936 20.699,15.946 21.616,18.753c0.936,2.807 -6.944,28.916 -11.566,36.477c-0.131,0.225 -0.281,0.449 -0.412,0.636c-14.692,22.983 -38.311,42.054 -67.395,54.556c14.299,-16.17 21.691,-42.821 21.691,-42.821l-9.002,-31.873l20.606,-4.773l4.267,-23.245c-4.641,-12.783 -15.347,-21.654 -15.347,-21.654c-2.264,-3.069 -4.791,-6.12 -7.505,-8.927c0,0 52.404,21.036 68.986,31.423h0.019c-0.094,1.348 -0.243,2.658 -0.412,3.986z" fill="#253a45"></path><path d="M389.523,323.235l25.547,12.539c-1.834,15.178 -7.206,29.571 -15.497,42.69c4.623,-7.561 12.502,-33.669 11.566,-36.477c-0.916,-2.806 -20.399,-17.816 -21.616,-18.752z" fill="#7c9ba5"></path><path d="M373.353,146.017c12.764,3.893 28.429,14.973 27.793,27.456c0,0 -3.107,-6.326 -11.36,-14.973c-7.731,-8.103 -15.497,-12.015 -16.433,-12.483z" fill="#1a2b32"></path><path d="M383.74,197.803c-1.385,0.655 -46.508,21.748 -132.899,21.748v-36.514c28.785,0 55.417,-4.211 72.018,-11.098c15.871,-6.588 23.488,-12.652 23.619,-14.973c0.131,-2.339 -10.631,-4.174 -10.631,-4.174l-0.168,0.019c-0.58,-4.604 -1.366,-9.564 -2.227,-14.71c-0.112,-0.618 -0.225,-1.254 -0.337,-1.89l2.433,-0.056c70.951,4.679 78.306,35.653 63.596,53.845c-8.684,10.743 -23.301,21.486 -54.762,28.485c-0.767,0.168 -1.553,0.337 -2.339,0.505c-4.323,0.917 -8.946,1.759 -13.906,2.527c-19.857,3.069 -45.067,4.885 -77.295,4.885v-3.294c78.548,-0.001 113.153,-12.129 132.898,-25.305zM401.145,173.473c0.636,-12.483 -15.029,-23.563 -27.793,-27.456c-0.037,-0.019 -0.056,-0.019 -0.094,-0.037c0,0 0.037,0.019 0.094,0.037c0.936,0.468 8.703,4.379 16.432,12.483c8.255,8.647 11.361,14.973 11.361,14.973z" fill="#253a45"></path><path d="M361.375,350.466h0.019c3.331,-12.072 5.184,-20.288 5.184,-20.288c0,0 -4.847,-10.425 -12.596,-20.887c0,0 10.705,8.871 15.347,21.654l-4.267,23.245l-20.606,4.773l9.002,31.873c0,0 -7.393,26.651 -21.691,42.821c-2.414,1.048 -4.866,2.04 -7.355,2.976c9.994,-11.285 18.884,-31.236 25.884,-50.832c-0.131,-0.318 -11.435,-28.448 -11.435,-28.448l6.625,-2.021z" fill="#1a2b32"></path><path d="M346.458,385.839c-0.356,0.243 -5.914,3.781 -18.884,-2.957c-13.756,-7.149 -13.756,-38.76 -13.756,-38.76c0.262,27.456 -6.812,76.528 -15.908,100.503c-0.524,0.131 -1.067,0.243 -1.609,0.356c4.698,-20.1 12.109,-79.055 14.093,-123.691c0.674,-14.916 0.73,-28.223 -0.131,-37.955c3.912,-5.446 6.682,-10.106 7.43,-12.914c10.593,14.448 28.785,29.945 28.785,29.945c2.714,2.807 5.24,5.858 7.505,8.927c7.748,10.462 12.596,20.887 12.596,20.887c0,0 -1.853,8.216 -5.184,20.288h-0.019l-15.889,4.866l-25.678,-37.113c0.711,1.254 12.184,21.429 19.052,39.134c0,0 11.304,28.13 11.435,28.448c-7,19.595 -15.89,39.546 -25.884,50.832l-0.019,0.019c-1.516,0.58 -3.069,1.142 -4.623,1.684c8.516,-11.998 18.585,-29.273 26.688,-52.499z" fill="#253a45"></path><path d="M250.84,219.551c86.391,0 131.515,-21.092 132.899,-21.748c-19.745,13.176 -54.35,25.303 -132.899,25.303z" fill="#1a2b32"></path><path d="M335.847,152.792c0,0 10.762,1.834 10.631,4.174c-0.131,2.321 -7.748,8.385 -23.619,14.973c-16.601,6.887 -43.233,11.098 -72.018,11.098v-3.5c65.823,0 85.568,-20.119 85.568,-20.119c-0.187,-2.115 -0.431,-4.323 -0.73,-6.607z" fill="#1a2b32"></path><path d="M319.807,318.22l25.678,37.113l-6.625,2.021c-6.869,-17.705 -18.341,-37.881 -19.053,-39.134z" fill="#1a2b32"></path><path d="M344.175,220.206c-1.441,10.05 -6.195,16.919 -17.574,19.371c0,0 8.703,-6.738 10.724,-9.302c4.716,-5.989 4.716,-11.286 4.716,-11.286c0.786,-0.168 1.572,-0.337 2.339,-0.505c-0.055,0.58 -0.13,1.16 -0.205,1.722z" fill="#7c9ba5"></path><path d="M327.574,382.882c12.97,6.738 18.529,3.2 18.884,2.957c-8.104,23.226 -18.173,40.501 -26.689,52.497c-7.018,2.47 -14.336,4.585 -21.86,6.288c9.096,-23.975 16.17,-73.047 15.908,-100.503c0.001,0.001 0.001,31.612 13.757,38.761z" fill="#253a45"></path><path d="M342.042,218.989c0,0 0,5.297 -4.716,11.286c-2.021,2.564 -10.724,9.302 -10.724,9.302c-0.711,0.15 -1.441,0.299 -2.208,0.412c1.366,-6.55 2.545,-12.408 3.182,-15.702c0.356,-1.759 0.561,-2.77 0.561,-2.77c4.958,-0.768 9.581,-1.611 13.905,-2.528z" fill="#1a2b32"></path><path d="M260.385,145.811c41.212,-1.404 65.149,-11.585 71.793,-14.842c0.206,1.142 0.412,2.265 0.618,3.388c-7.355,4.473 -18.117,7.692 -31.105,10.219c0,0 13.681,2.957 31.76,-6.476c0.861,5.147 1.647,10.106 2.227,14.71c0.299,2.283 0.543,4.492 0.73,6.607c0,0 -19.745,20.119 -85.568,20.119v-33.556c3.276,0 6.457,-0.056 9.545,-0.169z" fill="#455d68"></path><path d="M333.114,136.21c0.112,0.636 0.225,1.273 0.337,1.89c-18.079,9.433 -31.76,6.476 -31.76,6.476c12.989,-2.527 23.75,-5.746 31.105,-10.219c0.112,0.618 0.206,1.236 0.318,1.853z" fill="#253a45"></path><path d="M331.355,126.497c0.281,1.497 0.561,2.994 0.823,4.473c-6.644,3.257 -30.581,13.438 -71.793,14.842c43.795,-4.474 60.04,-13.363 70.97,-19.315z" fill="#1a2b32"></path><path d="M304.105,61.629c0.543,0.487 9.152,8.197 11.211,16.245c2.115,8.328 7.935,36.982 7.935,36.982l-3.481,-39.097c0,0 -2.92,-7.355 -15.665,-14.13zM322.353,72.671c1.348,14.935 5.484,34.961 9.002,53.826c-10.93,5.952 -27.175,14.841 -70.97,19.314c-3.088,0.112 -6.27,0.169 -9.545,0.169v-73.889c29.627,0 31.742,-17.424 31.742,-17.424c-6.214,4.436 -12.764,8.328 -31.742,8.328v-2.321c3.93,0.206 9.844,0.056 16.638,-1.946c7.767,-2.265 13.363,-5.951 16.657,-8.516c5.521,-0.206 12.409,0.037 25.809,9.676c5.896,4.248 9.845,9.04 12.409,12.783z" fill="#253a45"></path><path d="M328.136,221.516c0,0 -0.206,1.011 -0.561,2.77c0,0 -4.585,11.342 -8.01,22.159c-4.267,1.946 -8.609,2.096 -20.718,2.321c-15.684,0.281 -20.138,3.387 -26.333,3.575c-6.195,0.187 -12.97,-7.168 -21.673,-7.168v-18.772c32.228,0 57.438,-1.816 77.295,-4.885z" fill="#1a2b32"></path><path d="M327.574,224.286c-0.636,3.294 -1.815,9.152 -3.182,15.702c-0.281,1.385 -0.58,2.807 -0.88,4.23c-1.441,0.936 -2.676,1.666 -3.949,2.227c3.426,-10.817 8.011,-22.159 8.011,-22.159z" fill="#7c9ba5"></path><path d="M319.77,75.759l3.481,39.097c0,0 -5.82,-28.654 -7.935,-36.982c-2.059,-8.048 -10.668,-15.759 -11.211,-16.245c12.745,6.775 15.665,14.13 15.665,14.13z" fill="#455d68"></path><path d="M319.564,246.445c1.273,-0.562 2.508,-1.291 3.949,-2.227c-2.152,10.312 -4.492,21.261 -5.82,26.202c-0.749,2.807 -3.518,7.467 -7.43,12.914c-2.658,3.706 -5.839,7.767 -9.264,11.866c-6.457,7.692 -13.793,15.515 -20.25,21.242c1.067,-1.067 11.023,-11.08 19.651,-24.611c9.133,-14.299 13.756,-21.86 16.077,-33.875c0.635,-3.332 1.777,-7.375 3.087,-11.511z" fill="#b4b193"></path><path d="M263.997,326.286c-5.222,1.235 -10.649,1.441 -13.157,1.441v-27.119c7,0 15.328,-5.072 15.852,-5.39c-0.393,0.038 -5.222,0.618 -15.852,0.618v-7.617c14.074,0 27.493,-1.928 27.493,-1.928c-7.224,-0.131 -18.716,-3.107 -20.531,-2.957c-1.797,0.15 -6.962,3.593 -6.962,3.593v-15.085c5.877,0 8.534,-2.339 9.732,-4.51c7.374,-1.572 8.179,-6.476 8.179,-6.476c-1.273,1.741 -2.901,3.013 -7.205,2.845c0,0 -3.874,5.428 -10.705,5.428v-23.956c8.703,0 15.478,7.355 21.673,7.168c6.195,-0.187 10.649,-3.294 26.333,-3.575c12.109,-0.225 16.451,-0.374 20.718,-2.321c-1.31,4.136 -2.452,8.179 -3.088,11.51c-2.321,12.015 -6.944,19.577 -16.077,33.875c-8.628,13.531 -18.585,23.544 -19.651,24.611c-0.056,0.038 -0.094,0.075 -0.094,0.075c-4.155,3.687 -7.917,6.494 -10.836,7.842c-1.779,0.824 -3.781,1.46 -5.822,1.928zM269.462,260.987c5.989,1.497 13.064,11.454 14.055,19.314c0.112,1.46 0.112,2.377 0.112,2.377c0.037,-0.767 0,-1.553 -0.112,-2.377c-0.187,-2.92 -0.693,-7.992 -2.077,-11.959c-1.759,-4.997 -9.582,-6.887 -11.978,-7.355z" fill="#7c9ba5"></path><path d="M310.262,283.334c0.861,9.732 0.805,23.039 0.131,37.955c-0.73,4.847 -1.647,9.47 -2.62,13.7c-3.238,14.074 -7.112,23.975 -7.112,23.975c-7.28,-10.125 -17.686,-19.015 -25.566,-24.967c-2.938,-2.208 -5.521,-4.024 -7.449,-5.315c14.448,-4.548 22.608,-15.852 33.351,-33.482c3.426,-4.099 6.608,-8.161 9.265,-11.866z" fill="#b4b193"></path><path d="M307.773,334.989c0.973,-4.23 1.89,-8.853 2.62,-13.7c-1.984,44.637 -9.395,103.591 -14.093,123.691c-3.013,0.655 -6.064,1.254 -9.133,1.778c9.602,-26.707 20.288,-109.187 20.606,-111.769z" fill="#7c9ba5"></path><path d="M300.661,358.963c0,0 3.874,-9.901 7.112,-23.975c-0.318,2.583 -11.005,85.062 -20.606,111.77c-3.182,0.543 -6.382,1.029 -9.639,1.422c0,0 -4.23,-42.372 -5.577,-58.374c-1.366,-16.002 -8.983,-36.533 -8.983,-36.533l7,-13.157l1.984,-2.358c0,0.001 17.611,10.818 28.709,21.205z" fill="#b4b193"></path><path d="M280.748,316.441c6.457,-5.727 13.793,-13.55 20.25,-21.242c-10.743,17.63 -18.903,28.934 -33.351,33.482c-2.134,-1.441 -3.462,-2.283 -3.65,-2.396c2.04,-0.468 4.043,-1.104 5.821,-1.928c2.92,-1.347 6.682,-4.155 10.836,-7.842c0,0.001 0.038,-0.036 0.094,-0.074z" fill="#253a45"></path><path d="M281.44,268.342c1.385,3.968 1.89,9.04 2.077,11.959c-0.992,-7.861 -8.066,-17.817 -14.055,-19.314c2.396,0.468 10.219,2.358 11.978,7.355z" fill="#253a45"></path><path d="M300.661,358.963c-11.098,-10.387 -28.71,-21.205 -28.71,-21.205l3.144,-3.762c7.88,5.952 18.286,14.842 25.566,24.967z" fill="#1a2b32"></path><path d="M282.582,54.667c0,0 -2.115,17.424 -31.742,17.424v-9.096c18.978,0 25.529,-3.893 31.742,-8.328z" fill="#1a2b32"></path><path d="M277.529,448.181c-1.647,0.206 -3.294,0.393 -4.96,0.561c0,0 -2.115,-45.385 -4.698,-63.446c-2.583,-18.079 -8.516,-32.528 -8.516,-32.528l10.612,-12.652l-7,13.157c0,0 7.617,20.531 8.983,36.533c1.349,16.003 5.579,58.375 5.579,58.375z" fill="#1a2b32"></path><path d="M275.096,333.997l-3.144,3.762l-1.984,2.358l-10.612,12.652h-8.516v-21.822c6.513,0 12.015,-0.767 16.807,-2.265c1.928,1.291 4.511,3.106 7.449,5.315z" fill="#253a45"></path><path d="M272.569,448.742c-1.217,0.131 -2.433,0.243 -3.65,0.318l-0.019,-0.318c1.048,-18.79 -2.938,-60.096 -2.938,-60.096c0,0 -0.412,50.701 -7.542,61.05c-2.508,0.094 -5.035,0.131 -7.58,0.131v-97.059h8.516c0,0 5.933,14.448 8.516,32.528c2.582,18.061 4.697,63.446 4.697,63.446z" fill="#253a45"></path><path d="M278.334,286.291c0,0 -13.419,1.928 -27.493,1.928v-1.291c0,0 5.166,-3.444 6.962,-3.593c1.815,-0.151 13.306,2.825 20.531,2.956z" fill="#253a45"></path><path d="M265.963,388.646c0,0 3.986,41.305 2.938,60.096l0.019,0.318c-3.462,0.299 -6.962,0.524 -10.5,0.636c7.131,-10.349 7.543,-61.05 7.543,-61.05z" fill="#7c9ba5"></path><path d="M268.751,260.856c0,0 -0.805,4.904 -8.179,6.476c1.029,-1.89 0.973,-3.631 0.973,-3.631c4.305,0.168 5.934,-1.104 7.206,-2.845z" fill="#1a2b32"></path><path d="M263.997,326.286c0.187,0.112 1.516,0.954 3.65,2.396c-4.791,1.497 -10.294,2.265 -16.807,2.265v-3.219c2.508,-0.001 7.936,-0.207 13.157,-1.442z" fill="#1a2b32"></path><path d="M250.84,295.836c10.63,0 15.459,-0.58 15.852,-0.618c-0.524,0.318 -8.853,5.39 -15.852,5.39z" fill="#7c9ba5"></path><path d="M260.573,267.332c-1.198,2.171 -3.855,4.51 -9.732,4.51v-2.714c6.831,0 10.705,-5.428 10.705,-5.428c0,0 0.056,1.741 -0.973,3.632z" fill="#1a2b32"></path></g></g><g id="XMLID_6_"><g><path d="M85.875,323.984c0,2.62 0.112,5.222 0.318,7.804h0.019c16.582,-10.387 68.986,-31.423 68.986,-31.423c0,0 18.192,-15.497 28.785,-29.945c-1.329,-4.941 -3.668,-15.89 -5.82,-26.202c-0.299,-1.422 -0.599,-2.845 -0.88,-4.23c-0.767,-0.112 -1.497,-0.262 -2.208,-0.412c-11.379,-2.452 -16.133,-9.32 -17.574,-19.371c-43.272,22.684 -71.626,60.714 -71.626,103.779z" fill="#ff6b79"></path><path d="M112.151,323.235c-1.216,0.936 -20.699,15.946 -21.617,18.753c-0.936,2.807 6.944,28.916 11.566,36.477c0.131,0.225 0.281,0.449 0.412,0.636c14.692,22.983 38.311,42.054 67.395,54.556c-14.299,-16.17 -21.691,-42.821 -21.691,-42.821l9.002,-31.873l-20.606,-4.773l-4.267,-23.245c4.641,-12.783 15.347,-21.654 15.347,-21.654c2.265,-3.069 4.791,-6.12 7.505,-8.927c0,0 -52.404,21.036 -68.986,31.423h-0.019c0.094,1.348 0.243,2.658 0.412,3.986z" fill="#253a45"></path><path d="M112.151,323.235l-25.547,12.539c1.834,15.178 7.206,29.571 15.496,42.69c-4.623,-7.561 -12.502,-33.669 -11.566,-36.477c0.918,-2.806 20.401,-17.816 21.617,-18.752z" fill="#7c9ba5"></path><path d="M128.322,146.017c-12.764,3.893 -28.429,14.973 -27.793,27.456c0,0 3.107,-6.326 11.36,-14.973c7.73,-8.103 15.497,-12.015 16.433,-12.483z" fill="#1a2b32"></path><path d="M168.223,138.101c0.112,-0.618 0.225,-1.254 0.337,-1.89l-2.433,-0.056c-70.951,4.679 -78.306,35.653 -63.596,53.845c8.684,10.743 23.301,21.486 54.762,28.485c0.767,0.168 1.553,0.337 2.339,0.505c4.323,0.917 8.946,1.759 13.906,2.527c19.857,3.069 45.067,4.885 77.295,4.885v-3.294c-78.549,0 -113.155,-12.128 -132.899,-25.303c1.385,0.655 46.508,21.748 132.899,21.748v-36.514c-28.785,0 -55.417,-4.211 -72.018,-11.098c-15.871,-6.588 -23.488,-12.652 -23.619,-14.973c-0.131,-2.339 10.63,-4.174 10.63,-4.174l0.168,0.019c0.582,-4.606 1.369,-9.566 2.229,-14.712zM100.529,173.473c-0.636,-12.483 15.029,-23.563 27.793,-27.456c0.037,-0.019 0.056,-0.019 0.094,-0.037c0,0 -0.037,0.019 -0.094,0.037c-0.936,0.468 -8.703,4.379 -16.432,12.483c-8.254,8.647 -11.361,14.973 -11.361,14.973z" fill="#253a45"></path><path d="M140.3,350.466h-0.019c-3.331,-12.072 -5.184,-20.288 -5.184,-20.288c0,0 4.847,-10.425 12.596,-20.887c0,0 -10.705,8.871 -15.347,21.654l4.267,23.245l20.606,4.773l-9.002,31.873c0,0 7.393,26.651 21.691,42.821c2.414,1.048 4.866,2.04 7.355,2.976c-9.994,-11.285 -18.884,-31.236 -25.884,-50.832c0.131,-0.318 11.435,-28.448 11.435,-28.448l-6.625,-2.021z" fill="#1a2b32"></path><path d="M181.867,318.22c-0.711,1.254 -12.184,21.429 -19.053,39.134c0,0 -11.304,28.13 -11.435,28.448c7,19.595 15.89,39.546 25.884,50.832l0.019,0.019c1.516,0.58 3.069,1.142 4.623,1.684c-8.516,-11.997 -18.585,-29.271 -26.688,-52.497c0.356,0.243 5.914,3.781 18.884,-2.957c13.756,-7.149 13.756,-38.76 13.756,-38.76c-0.262,27.456 6.812,76.528 15.908,100.503c0.524,0.131 1.067,0.243 1.609,0.356c-4.698,-20.1 -12.109,-79.055 -14.093,-123.691c-0.674,-14.916 -0.73,-28.223 0.131,-37.955c-3.912,-5.446 -6.682,-10.106 -7.43,-12.914c-10.593,14.448 -28.785,29.945 -28.785,29.945c-2.714,2.807 -5.24,5.858 -7.505,8.927c-7.748,10.462 -12.596,20.887 -12.596,20.887c0,0 1.853,8.216 5.184,20.288h0.019l15.89,4.866z" fill="#253a45"></path><path d="M250.834,219.551c-86.391,0 -131.514,-21.092 -132.899,-21.748c19.745,13.176 54.35,25.303 132.899,25.303z" fill="#1a2b32"></path><path d="M165.828,152.792c0,0 -10.761,1.834 -10.63,4.174c0.131,2.321 7.748,8.385 23.619,14.973c16.601,6.887 43.233,11.098 72.018,11.098v-3.5c-65.823,0 -85.568,-20.119 -85.568,-20.119c0.187,-2.115 0.43,-4.323 0.73,-6.607z" fill="#1a2b32"></path><path d="M181.867,318.22l-25.678,37.113l6.625,2.021c6.869,-17.705 18.342,-37.881 19.053,-39.134z" fill="#1a2b32"></path><path d="M157.499,220.206c1.441,10.05 6.195,16.919 17.574,19.371c0,0 -8.703,-6.738 -10.724,-9.302c-4.716,-5.989 -4.716,-11.286 -4.716,-11.286c-0.786,-0.168 -1.572,-0.337 -2.339,-0.505c0.056,0.58 0.13,1.16 0.205,1.722z" fill="#7c9ba5"></path><path d="M174.1,382.882c-12.97,6.738 -18.529,3.2 -18.884,2.957c8.104,23.226 18.173,40.501 26.688,52.497c7.018,2.47 14.336,4.585 21.86,6.288c-9.096,-23.975 -16.17,-73.047 -15.908,-100.503c0,0.001 0,31.612 -13.756,38.761z" fill="#253a45"></path><path d="M159.633,218.989c0,0 0,5.297 4.716,11.286c2.021,2.564 10.724,9.302 10.724,9.302c0.711,0.15 1.441,0.299 2.208,0.412c-1.366,-6.55 -2.545,-12.408 -3.182,-15.702c-0.356,-1.759 -0.562,-2.77 -0.562,-2.77c-4.958,-0.768 -9.581,-1.611 -13.904,-2.528z" fill="#1a2b32"></path><path d="M241.289,145.811c-41.212,-1.404 -65.149,-11.585 -71.793,-14.842c-0.206,1.142 -0.412,2.265 -0.618,3.388c7.355,4.473 18.117,7.692 31.105,10.219c0,0 -13.681,2.957 -31.76,-6.476c-0.861,5.147 -1.647,10.106 -2.227,14.71c-0.299,2.283 -0.543,4.492 -0.73,6.607c0,0 19.745,20.119 85.568,20.119v-33.556c-3.275,0 -6.457,-0.056 -9.545,-0.169z" fill="#455d68"></path><path d="M168.56,136.21c-0.112,0.636 -0.225,1.273 -0.337,1.89c18.079,9.433 31.76,6.476 31.76,6.476c-12.989,-2.527 -23.75,-5.746 -31.105,-10.219c-0.112,0.618 -0.205,1.236 -0.318,1.853z" fill="#253a45"></path><path d="M170.319,126.497c-0.281,1.497 -0.561,2.994 -0.823,4.473c6.644,3.257 30.581,13.438 71.793,14.842c-43.794,-4.474 -60.04,-13.363 -70.97,-19.315z" fill="#1a2b32"></path><path d="M197.569,61.629c-0.543,0.487 -9.152,8.197 -11.211,16.245c-2.115,8.328 -7.935,36.982 -7.935,36.982l3.481,-39.097c0,0 2.92,-7.355 15.665,-14.13zM179.322,72.671c-1.348,14.935 -5.484,34.961 -9.002,53.826c10.93,5.952 27.175,14.841 70.97,19.314c3.088,0.112 6.27,0.169 9.545,0.169v-73.889c-29.627,0 -31.742,-17.424 -31.742,-17.424c6.214,4.436 12.764,8.328 31.742,8.328v-2.321c-3.93,0.206 -9.844,0.056 -16.638,-1.946c-7.767,-2.265 -13.363,-5.951 -16.657,-8.516c-5.521,-0.206 -12.409,0.037 -25.809,9.676c-5.896,4.248 -9.845,9.04 -12.409,12.783z" fill="#253a45"></path><path d="M173.539,221.516c0,0 0.206,1.011 0.562,2.77c0,0 4.585,11.342 8.01,22.159c4.267,1.946 8.609,2.096 20.718,2.321c15.684,0.281 20.138,3.387 26.333,3.575c6.195,0.187 12.97,-7.168 21.673,-7.168v-18.772c-32.229,0 -57.439,-1.816 -77.296,-4.885z" fill="#1a2b32"></path><path d="M174.1,224.286c0.636,3.294 1.815,9.152 3.182,15.702c0.281,1.385 0.58,2.807 0.88,4.23c1.441,0.936 2.676,1.666 3.949,2.227c-3.426,-10.817 -8.011,-22.159 -8.011,-22.159z" fill="#7c9ba5"></path><path d="M181.904,75.759l-3.481,39.097c0,0 5.82,-28.654 7.935,-36.982c2.059,-8.048 10.668,-15.759 11.211,-16.245c-12.745,6.775 -15.665,14.13 -15.665,14.13z" fill="#455d68"></path><path d="M182.11,246.445c-1.273,-0.562 -2.508,-1.291 -3.949,-2.227c2.152,10.312 4.492,21.261 5.82,26.202c0.749,2.807 3.519,7.467 7.43,12.914c2.658,3.706 5.839,7.767 9.264,11.866c6.457,7.692 13.793,15.515 20.25,21.242c-1.067,-1.067 -11.023,-11.08 -19.651,-24.611c-9.133,-14.299 -13.756,-21.86 -16.077,-33.875c-0.635,-3.332 -1.777,-7.375 -3.087,-11.511z" fill="#b4b193"></path><path d="M232.212,260.987c-5.989,1.497 -13.064,11.454 -14.055,19.314c-0.112,1.46 -0.112,2.377 -0.112,2.377c-0.037,-0.767 0,-1.553 0.112,-2.377c0.187,-2.92 0.692,-7.992 2.077,-11.959c1.759,-4.997 9.582,-6.887 11.978,-7.355zM237.677,326.286c5.222,1.235 10.649,1.441 13.157,1.441v-27.119c-7,0 -15.328,-5.072 -15.852,-5.39c0.393,0.038 5.222,0.618 15.852,0.618v-7.617c-14.074,0 -27.493,-1.928 -27.493,-1.928c7.224,-0.131 18.716,-3.107 20.531,-2.957c1.797,0.15 6.962,3.593 6.962,3.593v-15.085c-5.877,0 -8.534,-2.339 -9.732,-4.51c-7.374,-1.572 -8.179,-6.476 -8.179,-6.476c1.273,1.741 2.901,3.013 7.206,2.845c0,0 3.874,5.428 10.705,5.428v-23.956c-8.703,0 -15.478,7.355 -21.673,7.168c-6.195,-0.187 -10.649,-3.294 -26.333,-3.575c-12.109,-0.225 -16.451,-0.374 -20.718,-2.321c1.31,4.136 2.452,8.179 3.088,11.51c2.321,12.015 6.943,19.577 16.077,33.875c8.628,13.531 18.585,23.544 19.651,24.611c0.056,0.038 0.094,0.075 0.094,0.075c4.155,3.687 7.917,6.494 10.836,7.842c1.778,0.824 3.781,1.46 5.821,1.928z" fill="#7c9ba5"></path><path d="M191.412,283.334c-0.861,9.732 -0.805,23.039 -0.131,37.955c0.73,4.847 1.647,9.47 2.62,13.7c3.238,14.074 7.112,23.975 7.112,23.975c7.28,-10.125 17.686,-19.015 25.566,-24.967c2.938,-2.208 5.521,-4.024 7.449,-5.315c-14.448,-4.548 -22.608,-15.852 -33.351,-33.482c-3.426,-4.099 -6.607,-8.161 -9.265,-11.866z" fill="#b4b193"></path><path d="M193.901,334.989c-0.973,-4.23 -1.89,-8.853 -2.62,-13.7c1.984,44.637 9.395,103.591 14.093,123.691c3.013,0.655 6.064,1.254 9.133,1.778c-9.601,-26.707 -20.288,-109.187 -20.606,-111.769z" fill="#7c9ba5"></path><path d="M201.013,358.963c0,0 -3.874,-9.901 -7.112,-23.975c0.318,2.583 11.005,85.062 20.606,111.77c3.182,0.543 6.382,1.029 9.639,1.422c0,0 4.23,-42.372 5.577,-58.374c1.366,-16.002 8.984,-36.533 8.984,-36.533l-7,-13.157l-1.984,-2.358c0,0.001 -17.612,10.818 -28.71,21.205z" fill="#b4b193"></path><path d="M220.926,316.441c-6.457,-5.727 -13.793,-13.55 -20.25,-21.242c10.743,17.63 18.903,28.934 33.351,33.482c2.134,-1.441 3.462,-2.283 3.65,-2.396c-2.04,-0.468 -4.043,-1.104 -5.821,-1.928c-2.92,-1.347 -6.682,-4.155 -10.836,-7.842c0,0.001 -0.037,-0.036 -0.094,-0.074z" fill="#253a45"></path><path d="M220.234,268.342c-1.385,3.968 -1.89,9.04 -2.077,11.959c0.992,-7.861 8.066,-17.817 14.055,-19.314c-2.396,0.468 -10.219,2.358 -11.978,7.355z" fill="#253a45"></path><path d="M201.013,358.963c11.098,-10.387 28.71,-21.205 28.71,-21.205l-3.144,-3.762c-7.88,5.952 -18.286,14.842 -25.566,24.967z" fill="#1a2b32"></path><path d="M219.092,54.667c0,0 2.115,17.424 31.742,17.424v-9.096c-18.978,0 -25.528,-3.893 -31.742,-8.328z" fill="#1a2b32"></path><path d="M224.146,448.181c1.647,0.206 3.294,0.393 4.96,0.561c0,0 2.115,-45.385 4.698,-63.446c2.583,-18.079 8.516,-32.528 8.516,-32.528l-10.612,-12.652l7,13.157c0,0 -7.617,20.531 -8.984,36.533c-1.349,16.003 -5.578,58.375 -5.578,58.375z" fill="#1a2b32"></path><path d="M226.579,333.997l3.144,3.762l1.984,2.358l10.612,12.652h8.516v-21.822c-6.513,0 -12.015,-0.767 -16.807,-2.265c-1.928,1.291 -4.511,3.106 -7.449,5.315z" fill="#253a45"></path><path d="M229.105,448.742c1.217,0.131 2.433,0.243 3.65,0.318l0.019,-0.318c-1.048,-18.79 2.938,-60.096 2.938,-60.096c0,0 0.412,50.701 7.542,61.05c2.508,0.094 5.035,0.131 7.58,0.131v-97.059h-8.516c0,0 -5.933,14.448 -8.516,32.528c-2.582,18.061 -4.697,63.446 -4.697,63.446z" fill="#253a45"></path><path d="M223.341,286.291c0,0 13.419,1.928 27.493,1.928v-1.291c0,0 -5.166,-3.444 -6.962,-3.593c-1.816,-0.151 -13.307,2.825 -20.531,2.956z" fill="#253a45"></path><path d="M235.712,388.646c0,0 -3.986,41.305 -2.938,60.096l-0.019,0.318c3.462,0.299 6.962,0.524 10.499,0.636c-7.13,-10.349 -7.542,-61.05 -7.542,-61.05z" fill="#1a2b32"></path><path d="M232.923,260.856c0,0 0.805,4.904 8.179,6.476c-1.029,-1.89 -0.973,-3.631 -0.973,-3.631c-4.305,0.168 -5.933,-1.104 -7.206,-2.845z" fill="#1a2b32"></path><path d="M237.677,326.286c-0.187,0.112 -1.516,0.954 -3.65,2.396c4.791,1.497 10.294,2.265 16.807,2.265v-3.219c-2.508,-0.001 -7.935,-0.207 -13.157,-1.442z" fill="#1a2b32"></path><path d="M250.834,295.836c-10.63,0 -15.459,-0.58 -15.852,-0.618c0.524,0.318 8.853,5.39 15.852,5.39z" fill="#7c9ba5"></path><path d="M241.102,267.332c1.198,2.171 3.855,4.51 9.732,4.51v-2.714c-6.831,0 -10.705,-5.428 -10.705,-5.428c0,0 -0.056,1.741 0.973,3.632z" fill="#1a2b32"></path></g></g></g><path d="M225.184,287.305c3.452,1.613 2.484,4.478 9.519,4.465c7.035,-0.012 14.327,-1.088 14.327,-1.088l17.038,-1.925l10.486,-2.068l-0.418,-0.159c0,0 -12.333,1.688 -25.302,1.688c-12.969,0 -27.231,-1.882 -27.231,-1.882z" fill="#b4b193"></path><path d="M262.625,289.146c-2.938,-0.002 -6.83,-0.022 -10.755,-0.092c-7.936,-0.142 -14.053,-0.393 -27.288,-2.595c-0.024,-0.003 -0.05,-0.006 -0.073,-0.009h-0.72l1.396,0.855c3.453,1.613 2.484,4.478 9.519,4.465c7.035,-0.012 14.327,-1.088 14.327,-1.088z" fill="#1a2b32"></path><path d="M257.208,256.275c1.713,-0.216 2.612,6.895 0.225,6.891c-2.386,-0.003 -2.617,-6.59 -0.225,-6.891z" fill="#b4b193"></path><path d="M264.587,290.531c1.623,-1.786 5.944,-0.678 4.164,0.484c-1.78,1.162 -5.483,0.968 -4.164,-0.484z" fill="#b4b193"></path><g fill="#1a2b32"><path d="M255.542,276.673c2.187,-2.288 6.486,-1.549 11.036,0.581c4.55,2.13 13.456,5.421 13.069,6.389c-0.189,0.473 -2.419,0.133 -2.765,0.108c-2.052,-0.145 -4.096,-0.402 -6.134,-0.678c-2.375,-0.322 -4.752,-0.645 -7.112,-1.066c-1.914,-0.342 -4.033,-0.594 -5.835,-1.348c-1.217,-0.509 -3.653,-2.527 -2.259,-3.986z"></path><path d="M246.132,276.673c-2.187,-2.288 -6.486,-1.549 -11.036,0.581c-4.55,2.13 -13.456,5.421 -13.069,6.389c0.189,0.473 2.419,0.133 2.765,0.108c2.051,-0.145 4.096,-0.402 6.134,-0.678c2.376,-0.322 4.752,-0.645 7.112,-1.066c1.914,-0.342 4.033,-0.594 5.835,-1.348c1.217,-0.509 3.654,-2.527 2.259,-3.986z"></path></g><path d="M237.677,290.682c6.802,0.583 32.464,-2.372 40.657,-4.391c0,0 -7.122,3.049 -17.761,3.613c-10.639,0.564 -24.267,3.837 -24.267,3.837z" fill="#1a2b32"></path><path d="M223.341,286.291c0,0 2.597,2.384 6.024,4.932l1.385,-1.036l-6.223,-3.737z" fill="#1a2b32"></path><path d="M243.641,299.437c6.292,-0.581 20.328,-2.227 20.667,-1.065c0.339,1.162 -8.373,4.84 -13.213,4.84c-4.84,0.001 -7.454,-3.775 -7.454,-3.775z" fill="#253a45"></path><g fill="#1a2b32"><path d="M274.287,286.03c0.798,-0.426 3.894,-0.262 4.474,0.216c0.581,0.478 3.458,3.917 1.708,4.14c-0.727,0.093 -6.182,-4.356 -6.182,-4.356z"></path><path d="M227.388,286.03c-0.798,-0.426 -3.894,-0.262 -4.474,0.216c-0.581,0.478 -3.458,3.917 -1.708,4.14c0.727,0.093 6.182,-4.356 6.182,-4.356z"></path></g><g><path d="M237.785,291.9c-0.812,2.245 -23.111,21.608 -28.674,27.028v0.024c-1.409,1.361 -2.268,2.197 -2.268,2.197c-0.096,0 -4.274,-0.024 -7.092,-3.94c-2.865,-3.94 -1.098,-5.922 -1.098,-5.922l1.528,-1.099h0.024l31.729,-23.737c3.199,-1.073 6.83,2.679 5.851,5.449z" fill="#253a45"></path><path d="M209.11,318.928v0.024c-1.409,1.361 -2.268,2.197 -2.268,2.197c-0.096,0 -4.274,-0.024 -7.092,-3.94c-2.674,-3.677 -1.313,-5.635 -1.122,-5.898l0.024,-0.024l1.528,-1.099h0.024c3.081,-0.668 8.664,5.457 8.906,8.74z" fill="#b4b193"></path><path d="M206.842,321.148c-0.096,0 -4.274,-0.024 -7.092,-3.94c-2.674,-3.677 -1.313,-5.635 -1.122,-5.898l0.024,-0.024c1.003,-0.716 4.25,0.955 5.945,3.367c1.672,2.436 3.009,5.325 2.245,6.495z" fill="#ff6b79"></path></g><path d="M237.677,290.682l-28.567,23.922c0,0 0.758,1.168 0.617,2.517l27.95,-24.814l0.867,-1.573z" fill="#1a2b32"></path><path d="M203.612,309.292l28.026,-21.074l-25.323,22.372z" fill="#455d68"></path><path d="M346.87,382.302l-17.75,-41.577c0,0 8.132,27.544 11.229,32.238c3.098,4.693 6.521,9.339 6.521,9.339z" fill="#7c9ba5"></path><path d="M140.157,327.727c0,0 13.274,-21.882 15.059,-24.021c1.785,-2.139 -2.862,6.7 -5.572,12.735c-2.711,6.036 -9.487,11.286 -9.487,11.286z" fill="#7c9ba5"></path></g><path d="M182.213,299.862c-4.808,-3.92 -8.738,-9.249 -9.704,-15.379c-1.11,-6.984 1.677,-13.913 3.187,-20.819c1.51,-6.918 1.299,-15.223 -4.175,-19.709c-6.54,-5.352 -17.666,-2.809 -23.162,-9.227c-3.831,-4.486 -2.965,-11.315 -0.822,-16.811c2.154,-5.507 5.385,-10.771 5.707,-16.667c0.4,-7.306 -3.942,-14.268 -9.76,-18.71c-5.829,-4.441 -12.969,-6.751 -20.064,-8.594c-5.43,-1.41 -11.115,-2.676 -15.545,-6.129c-1.181,-0.92 -2.198,-2.004 -3.082,-3.187c1.342,3.253 3.429,6.18 5.935,8.638c2.706,2.654 5.847,4.865 9.259,6.517c3.843,1.861 7.996,3.005 11.875,4.789c3.879,1.785 7.611,4.371 9.534,8.184c2.334,4.629 1.584,10.281 -0.419,15.063c0.308,-3.776 -1.854,-7.414 -4.761,-9.845c-6.394,-5.347 -16.549,-8.126 -24.575,-9.631c-3.603,-0.675 -7.344,-1.094 -10.584,-2.809c-3.24,-1.715 -5.915,-5.155 -5.417,-8.787c-1.734,7.008 -0.282,14.536 2.888,21.022c2.07,4.235 4.842,8.083 7.917,11.642c2.951,3.415 5.566,5.055 9.398,7.205c6.771,3.799 15.14,6.447 18.925,13.824c1.721,3.364 2.199,7.351 4.486,10.36c2.365,3.12 6.118,4.53 9.838,6.018c2.543,0.766 4.897,1.91 6.94,3.564c-2.021,-1.566 -4.475,-2.576 -6.94,-3.564c-4.675,-1.432 -9.927,-1.632 -14.868,-1.577c-8.294,0.089 -17.288,0.333 -23.995,-4.553c-6.14,-4.475 -8.617,-11.892 -11.481,-19.143c-2.376,-3.997 -5.985,-7.251 -10.382,-8.661c-5.863,-1.888 -12.991,0 -16.489,5.063c-2.365,3.42 -2.909,7.773 -2.843,11.925c0.067,4.308 0.755,8.694 2.832,12.469c2.954,5.374 8.45,8.983 14.268,10.926c11.304,3.775 25.494,4.197 37.319,3.831c3.12,-0.1 6.251,-0.333 9.372,-0.411c6.451,-0.167 14.057,-0.244 19.764,3.198c8.183,4.919 4.841,16.367 4.997,24.25c0.1,5.408 0.933,10.982 4.131,15.467c6.074,8.505 17.522,13.136 27.681,13.757c3.598,0.222 7.651,-0.644 8.716,-4.353c-5.553,-2.606 -11.149,-5.271 -15.901,-9.146z" fill="#f9f8f7"></path><path d="M140.429,263.067c0.403,0.056 0.806,0.12 1.208,0.194c2.163,0.4 4.357,1.133 5.926,2.675c2.3,2.26 2.676,5.548 2.882,8.599c0.236,3.508 0.168,7.23 1.969,10.249c-0.491,-0.824 -1.628,-1.466 -2.199,-2.339c-0.671,-1.025 -1.15,-2.163 -1.581,-3.305c-0.864,-2.289 -1.45,-4.713 -2.663,-6.856c-3.024,-5.343 -9.829,-5.697 -15.285,-4.66c-4.647,0.883 -9.219,2.422 -13.8,3.552c-4.914,1.212 -10.013,1.87 -15.059,2.213c-2.398,0.163 -4.972,0.195 -6.996,-1.101c-1.677,-1.074 -2.752,-3.029 -2.762,-5.02c-0.022,-4.381 2.609,-4.809 5.963,-4.194c5.83,1.07 11.658,0.93 17.555,0.742c4.277,-0.136 8.552,-0.349 12.822,-0.639c3.983,-0.269 8.04,-0.759 12.02,-0.11z" fill="#f9f8f7"></path></g></g></g></g></svg>